<?xml version="1.0" encoding="UTF-8"?>
<svg width="41px" height="37px" viewBox="0 0 41 37" version="1.1" xmlns="http://www.w3.org/2000/svg" xmlns:xlink="http://www.w3.org/1999/xlink">
    <title>logo</title>
    <g id="页面-1" stroke="none" stroke-width="1" fill="none" fill-rule="evenodd">
        <g id="切图" transform="translate(-20.000000, -21.000000)" fill="#1055CD" fill-rule="nonzero">
            <path d="M60.1853211,45.5855263 C59.8167165,45.524671 59.2023756,45.4638158 58.3422983,45.4029605 C55.3320277,45.037829 49.8029593,44.3075658 46.1783478,43.8207237 L45.3797046,43.5773027 L45.2568364,43.5773027 L43.4138136,43.0296053 C43.2295113,46.7417763 42.9837749,49.8453947 42.6766045,52.21875 L42.6766045,52.6447369 L43.5981158,53.0707237 L46.4855182,54.4095395 C46.6083864,54.4703948 46.6698205,54.5921053 46.6698205,54.7138158 L46.7312546,56.9654606 L46.7312546,57.1480263 C46.7312546,57.2697368 46.6698205,57.3914474 46.5469523,57.3305921 L41.8165272,56.5394737 C41.4479226,57.4523027 41.079318,57.9391448 40.5264112,58 L40.4649771,58 C39.9120703,58 39.4820316,57.5131579 39.1748611,56.5394737 L34.444436,57.2697369 C34.3215678,57.2697369 34.2601337,57.2088816 34.2601337,57.0871711 L34.2601337,56.9046053 L34.3215678,54.6529605 C34.3215678,54.53125 34.3830019,54.4095395 34.50587,54.3486842 L37.3932724,53.0098684 L38.3147838,52.5838816 L38.3147838,52.1578947 C38.0690475,49.7845395 37.8847452,46.680921 37.7004429,42.96875 L35.795986,43.5164474 L35.6116837,43.5164474 L34.8130405,43.6990132 C31.188429,44.125 25.6593606,44.7944079 22.64909,45.1595395 C21.7890127,45.28125 21.1746718,45.3421053 20.8060672,45.3421053 C19.8231217,45.4638158 19.7616876,44.2467105 20.4988968,43.8207237 C20.621765,43.7598684 22.8333923,42.6036185 25.5979265,41.0822368 L25.5979265,39.5 C25.5979265,38.8914474 26.0893993,38.4046053 26.7037402,38.4046053 C27.3180812,38.4046053 27.8095539,38.8914474 27.8095539,39.5 L27.8095539,39.8651316 C29.4682744,39.0131579 31.188429,38.100329 32.7242813,37.2483553 L32.7242813,35.4226974 C32.7242813,34.8141447 33.2157541,34.3273027 33.830095,34.3273026 C34.4444359,34.3273026 34.9359087,34.8141447 34.9359087,35.4226974 L34.9359087,36.03125 C35.9188542,35.5444079 36.7174974,35.0575658 37.2704042,34.7532895 C37.2089701,27.6332237 37.761877,22.15625 39.7892021,21.1825658 C39.9120703,21.1217105 39.9735044,21.1217105 40.0963726,21.0608552 C40.1578067,21.0608552 40.2806748,21.0608552 40.3421089,21 L40.5878453,21 C40.6492794,21 40.7721476,21 40.8335816,21.0608552 C40.9564498,21.0608552 41.0178839,21.1217105 41.1407521,21.1825658 C43.1680772,22.15625 43.720984,27.6332237 43.5366818,34.7532895 C44.0895886,35.0575658 44.8882318,35.4835526 45.8097432,35.9703947 L45.8097432,35.3618421 C45.8097432,34.7532895 46.301216,34.2664474 46.9155569,34.2664474 C47.5298978,34.2664474 48.0213706,34.7532895 48.0213706,35.3618421 L48.0213706,37.1875 C49.5572229,38.0394737 51.2773775,38.9523026 52.936098,39.8651316 L52.936098,39.3782895 C52.936098,38.7697368 53.4275708,38.2828948 54.0419117,38.2828948 C54.6562527,38.2828948 55.1477254,38.7697369 55.1477254,39.3782895 L55.1477254,41.2039474 C57.9736937,42.7253289 60.1853211,43.9424342 60.2467552,44.0032895 C61.2911348,44.4292763 61.2297007,45.7072369 60.1853211,45.5855263 Z" id="logo"></path>
        </g>
    </g>
</svg>