<?xml version="1.0" encoding="UTF-8"?>
<svg width="33px" height="32px" viewBox="0 0 33 32" version="1.1" xmlns="http://www.w3.org/2000/svg" xmlns:xlink="http://www.w3.org/1999/xlink">
    <title>产品统计</title>
    <g id="页面-1" stroke="none" stroke-width="1" fill="none" fill-rule="evenodd">
        <g id="切图" transform="translate(-1026.000000, -151.000000)">
            <g id="产品统计" transform="translate(1026.100000, 151.000000)">
                <rect id="矩形" x="0" y="0" width="32" height="32"></rect>
                <g transform="translate(2.000000, 4.000000)" fill="#333333" fill-rule="nonzero" id="形状">
                    <path d="M22.5811168,10.8750457 C23.067083,10.8750457 23.5396385,10.9300898 24,11.0182067 L24,6.38224329 L12.8335544,10.2826625 L12.8174791,23.999971 L16.4363886,22.7314645 C15.5730442,21.505828 15.0560861,20.0191451 15.0560861,18.4056204 C15.0560571,14.2466186 18.4251479,10.8750457 22.5811168,10.8750457 L22.5811168,10.8750457 Z M0,6.38224329 L0,20.0803922 L11.1822892,24 L11.1664456,10.2827784 L0,6.38224329 Z M11.9999276,0 L0.017552477,3.98369547 L11.9999276,7.96750689 L23.9824475,3.98369547 L11.9999276,0 Z"></path>
                    <path d="M23,12 C19.6863907,12 17,14.6862675 17,18 C17,21.3137325 19.6864215,24 23,24 C26.3137325,24 29,21.3137017 29,18 C29,14.6862983 26.3137325,12 23,12 Z M21.1451376,20.3960025 C21.1451376,20.5670202 21.0064572,20.7055774 20.8355627,20.7055774 C20.6644219,20.7055774 20.5258646,20.5670202 20.5258646,20.3960025 L20.5258646,17.4586135 C20.5258646,17.2875959 20.6644219,17.1489154 20.8355627,17.1489154 C21.0064572,17.1489154 21.1451376,17.2875959 21.1451376,17.4586135 L21.1451376,20.3960025 Z M22.5882395,20.3960025 C22.5882395,20.5670202 22.4495591,20.7055774 22.2785414,20.7055774 C22.1075238,20.7055774 21.9688434,20.5670202 21.9688434,20.3960025 L21.9688434,15.6041207 C21.9688434,15.4332262 22.1075238,15.2944226 22.2785414,15.2944226 C22.4495591,15.2944226 22.5882395,15.4332262 22.5882395,15.6041207 L22.5882395,20.3960025 Z M24.0313722,20.3960025 C24.0313722,20.5670202 23.8926918,20.7055774 23.721551,20.7055774 C23.5506565,20.7055774 23.4119761,20.5670202 23.4119761,20.3960025 L23.4119761,17.4586135 C23.4119761,17.2875959 23.5506565,17.1489154 23.721551,17.1489154 C23.8926918,17.1489154 24.031249,17.2875959 24.0313722,17.4586135 L24.0313722,20.3960025 Z M25.4743817,20.3960025 C25.4743817,20.5670202 25.3357013,20.7055774 25.1648068,20.7055774 C24.993666,20.7055774 24.8551088,20.5670202 24.8551088,20.3960025 L24.8551088,15.6041207 C24.8551088,15.4332262 24.993666,15.2944226 25.1648068,15.2944226 C25.3357013,15.2944226 25.4743817,15.4332262 25.4743817,15.6041207 L25.4743817,20.3960025 Z"></path>
                </g>
            </g>
        </g>
    </g>
</svg>