<?xml version="1.0" encoding="UTF-8"?>
<svg width="33px" height="32px" viewBox="0 0 33 32" version="1.1" xmlns="http://www.w3.org/2000/svg" xmlns:xlink="http://www.w3.org/1999/xlink">
    <title>产品发布</title>
    <g id="页面-1" stroke="none" stroke-width="1" fill="none" fill-rule="evenodd">
        <g id="切图" transform="translate(-970.000000, -151.000000)">
            <g id="产品发布" transform="translate(970.650000, 151.000000)">
                <rect id="矩形" x="0" y="0" width="32" height="32"></rect>
                <g transform="translate(2.000000, 2.000000)" fill="#333333" fill-rule="nonzero" id="形状">
                    <path d="M8.73529412,11.9117647 L1.58823529,11.9117647 C0.711045496,11.9117647 0,12.6228102 0,13.5 L0,20.6470588 C0,21.5242486 0.711045496,22.2352941 1.58823529,22.2352941 L8.73529412,22.2352941 C9.61248392,22.2352941 10.3235294,21.5242486 10.3235294,20.6470588 L10.3235294,13.5 C10.3235294,12.6228102 9.61248392,11.9117647 8.73529412,11.9117647 Z M13.5,10.3235294 L20.6470588,10.3235294 C21.5242486,10.3235294 22.2352941,9.61248392 22.2352941,8.73529412 L22.2352941,1.58823529 C22.2352941,0.711045496 21.5242486,0 20.6470588,0 L13.5,0 C12.6228102,0 11.9117647,0.711045496 11.9117647,1.58823529 L11.9117647,8.73529412 C11.9117647,9.61248392 12.6228102,10.3235294 13.5,10.3235294 L13.5,10.3235294 Z M8.73529412,0 L1.58823529,0 C0.711045496,0 0,0.711045496 0,1.58823529 L0,8.73529412 C0,9.61248392 0.711045496,10.3235294 1.58823529,10.3235294 L8.73529412,10.3235294 C9.61248392,10.3235294 10.3235294,9.61248392 10.3235294,8.73529412 L10.3235294,1.58823529 C10.3235294,0.711045496 9.61248392,0 8.73529412,0 Z M20.6470588,14.2941176 C17.1384237,14.2941176 14.2941176,17.1384237 14.2941176,20.6470588 C14.2941176,24.1556939 17.1384237,27 20.6470588,27 C24.155725,27 27,24.1556939 27,20.6470588 C27,17.1384237 24.1556939,14.2941176 20.6470588,14.2941176 L20.6470588,14.2941176 Z M21.4411765,24.6176471 L19.8529412,23.8235294 L22.2747518,21.4411765 L17.4705882,21.4411765 C17.0319933,21.4411765 16.6764706,21.0856537 16.6764706,20.6470588 C16.6764706,20.2084639 17.0319933,19.8529412 17.4705882,19.8529412 L22.2747518,19.8529412 L19.8529412,17.4705882 L21.4411765,16.6764706 L25.4117647,20.6470588 L21.4411765,24.6176471 Z M20.6470588,12.7058824 C21.1399701,12.7058824 21.6222415,12.7511719 22.0902746,12.8370979 C21.8390418,12.2910489 21.2875333,11.9117647 20.6470588,11.9117647 L13.5,11.9117647 C12.6228102,11.9117647 11.9117647,12.6228102 11.9117647,13.5 L11.9117647,20.6470588 C11.9117647,21.2875333 12.2910489,21.8390728 12.8370979,22.0903056 C12.7497,21.6141956 12.7057806,21.131124 12.7058824,20.6470588 C12.7058824,16.2612339 16.261296,12.7058824 20.6470588,12.7058824 L20.6470588,12.7058824 Z"></path>
                </g>
            </g>
        </g>
    </g>
</svg>