<?xml version="1.0" encoding="UTF-8"?>
<svg width="21px" height="20px" viewBox="0 0 21 20" version="1.1" xmlns="http://www.w3.org/2000/svg" xmlns:xlink="http://www.w3.org/1999/xlink">
    <title>历史检索-导航</title>
    <g id="页面-1" stroke="none" stroke-width="1" fill="none" fill-rule="evenodd">
        <g id="切图" transform="translate(-237.000000, -29.000000)">
            <g id="历史检索-导航" transform="translate(237.857143, 29.000000)">
                <rect id="矩形" x="0" y="0" width="20" height="20"></rect>
                <g id="文档搜索_doc-search-two" transform="translate(3.000000, 1.000000)">
                    <path d="M14,9.775 L14,0.85 C14,0.38055775 13.6082625,0 13.125,0 L0.875,0 C0.391750625,0 0,0.38055775 0,0.85 L0,16.15 C0,16.619455 0.391750625,17 0.875,17 L5.6875,17" id="路径" stroke="#FFFFFF" stroke-linecap="round" stroke-linejoin="round"></path>
                    <line x1="3" y1="3.30555556" x2="9" y2="3.30555556" id="路径" stroke="#FFFFFF" stroke-linecap="round" stroke-linejoin="round"></line>
                    <line x1="3" y1="7.08333333" x2="9" y2="7.08333333" id="路径" stroke="#FFFFFF" stroke-linecap="round" stroke-linejoin="round"></line>
                    <line x1="4" y1="10.8611111" x2="7" y2="10.8611111" id="路径" stroke="#FFFFFF" stroke-linecap="round" stroke-linejoin="round"></line>
                    <path d="M13,13.6944444 C13,14.3464417 12.7202,14.9367194 12.26775,15.3639861 C11.81535,15.7913 11.19035,16.0555556 10.5,16.0555556 C9.1193,16.0555556 8,14.9984389 8,13.6944444 C8,12.39045 9.1193,11.3333333 10.5,11.3333333 C11.8807,11.3333333 13,12.39045 13,13.6944444 Z" id="路径"></path>
                    <path d="M14,17 L12.5564583,15.6366551 M12.5564583,15.6366551 C12.9335,15.2805995 13.1666667,14.7887014 13.1666667,14.2453704 C13.1666667,13.1587083 12.2339167,12.2777778 11.0833333,12.2777778 C9.93275,12.2777778 9,13.1587083 9,14.2453704 C9,15.3320324 9.93275,16.212963 11.0833333,16.212963 C11.658625,16.212963 12.1794583,15.99275 12.5564583,15.6366551 Z" id="形状" stroke="#FFFFFF" stroke-linecap="round" stroke-linejoin="round"></path>
                </g>
            </g>
        </g>
    </g>
</svg>