<?xml version="1.0" encoding="UTF-8"?>
<svg width="21px" height="20px" viewBox="0 0 21 20" version="1.1" xmlns="http://www.w3.org/2000/svg" xmlns:xlink="http://www.w3.org/1999/xlink">
    <title>多模式预报</title>
    <g id="页面-1" stroke="none" stroke-width="1" fill="none" fill-rule="evenodd">
        <g id="切图" transform="translate(-129.000000, -29.000000)">
            <g id="多模式预报" transform="translate(129.285714, 29.000000)">
                <rect id="矩形" x="0" y="0" width="20" height="20"></rect>
                <g id="雷雨_thunderstorm" transform="translate(1.000000, 2.000000)" stroke="#FFFFFF" stroke-linecap="round" stroke-linejoin="round">
                    <path d="M2.4545475,11.24739 C0.964089,10.10745 0,8.29251 0,6.248295 C0,2.79747 2.74734,0 6.13638,0 C8.97003,0 11.35512,1.95579 12.060675,4.613985 C12.615885,4.327155 13.24395,4.165515 13.909095,4.165515 C16.168455,4.165515 18,6.030495 18,8.331075 C18,10.03923 16.99029,11.50722 15.545475,12.15" id="路径"></path>
                    <line x1="6.036345" y1="7.463655" x2="4.76352" y2="8.73648" id="路径"></line>
                    <polyline id="路径" points="10.34982 8.1 6.75 11.70054 11.2518 11.70054 7.650135 15.30081"></polyline>
                    <line x1="13.236345" y1="14.663655" x2="11.96352" y2="15.93648" id="路径"></line>
                </g>
            </g>
        </g>
    </g>
</svg>