<?xml version="1.0" encoding="UTF-8"?>
<svg width="33px" height="32px" viewBox="0 0 33 32" version="1.1" xmlns="http://www.w3.org/2000/svg" xmlns:xlink="http://www.w3.org/1999/xlink">
    <title>天气学检验</title>
    <g id="页面-1" stroke="none" stroke-width="1" fill="none" fill-rule="evenodd">
        <g id="切图" transform="translate(-804.000000, -151.000000)">
            <g id="天气学检验" transform="translate(804.300000, 151.000000)">
                <rect id="矩形" x="0" y="0" width="32" height="32"></rect>
                <g id="icon_天气检验" transform="translate(1.000000, 2.000000)" fill="#1055CD" fill-rule="nonzero">
                    <path d="M20,17.5 C20,18.0358984 20.2858984,18.5310889 20.75,18.7990381 C21.2141016,19.0669873 21.7858984,19.0669873 22.25,18.7990381 C22.7141016,18.5310889 23,18.0358984 23,17.5 C23,16.9641016 22.7141016,16.4689111 22.25,16.2009619 C21.7858984,15.9330127 21.2141016,15.9330127 20.75,16.2009619 C20.2858984,16.4689111 20,16.9641016 20,17.5 Z" id="路径"></path>
                    <path d="M22.5,12 C18.3579241,12 15,15.3579241 15,19.5 C15,23.6420759 18.3579241,27 22.5,27 C26.6420759,27 30,23.6420759 30,19.5 C30,15.3579241 26.6420759,12 22.5,12 Z M26.6728795,23.6896205 C26.4636161,23.8988839 26.1893973,24.0033482 25.9151786,24.0033482 C25.6409598,24.0033482 25.3667411,23.8988839 25.1574777,23.6896205 L23.0149554,21.5470982 C22.4872768,21.811942 21.8916295,21.9609375 21.2611607,21.9609375 C19.0975446,21.9609375 17.34375,20.2071429 17.34375,18.0435268 C17.34375,15.8799107 19.0975446,14.1261161 21.2611607,14.1261161 C23.4247768,14.1261161 25.1785714,15.8799107 25.1785714,18.0435268 C25.1785714,18.7972098 24.965625,19.5010045 24.5966518,20.0983259 L26.6725446,22.1742188 C27.0910714,22.5927455 27.0910714,23.2710937 26.6728795,23.6896205 Z" id="形状"></path>
                    <path d="M22.6008969,9.61038961 C25.5682735,9.61038961 28.2232063,10.899026 30,12.9275974 C29.4154709,10.2896104 26.9875561,8.31168831 24.0807175,8.31168831 C23.8974215,8.31168831 23.7158072,8.32012987 23.5365471,8.33538961 C23.3724215,3.70519481 19.4327354,0 14.5964126,0 C10.6789238,0 7.35,2.43116883 6.13890135,5.81558442 C2.65392377,6.38603896 0,9.31428571 0,12.8409091 C0,16.7769481 3.30504484,19.9675325 7.382287,19.9675325 C7.43273543,19.9675325 7.48318386,19.9665584 7.53363229,19.9655844 L7.53363229,20 L12.9746637,20 C12.9349873,19.6550015 12.915002,19.3081571 12.9147982,18.961039 C12.9147982,13.7967532 17.2513453,9.61038961 22.6008969,9.61038961 Z" id="路径"></path>
                </g>
            </g>
        </g>
    </g>
</svg>