<?xml version="1.0" encoding="UTF-8"?>
<svg width="33px" height="32px" viewBox="0 0 33 32" version="1.1" xmlns="http://www.w3.org/2000/svg" xmlns:xlink="http://www.w3.org/1999/xlink">
    <title>强天气预报</title>
    <g id="页面-1" stroke="none" stroke-width="1" fill="none" fill-rule="evenodd">
        <g id="切图" transform="translate(-194.000000, -151.000000)">
            <g id="强天气预报" transform="translate(194.350000, 151.000000)">
                <rect id="矩形" x="0" y="0" width="32" height="32"></rect>
                <g id="强天气" transform="translate(0.000000, 2.000000)" fill="#333333" fill-rule="nonzero">
                    <path d="M25.0181875,6.14284662 L24.5818125,6.14284662 C22.9818125,2.57143559 19.4909062,0 15.27275,0 C10.036375,0 5.67275,3.85715338 5.236375,8.85715338 C2.1818125,9.28570552 0,11.5714294 0,14.428546 C0,17.4285337 2.47271875,19.8571288 5.52728125,19.8571288 L10.0363438,19.8571288 L12.2181875,15.5713926 C12.5090938,14.9999693 13.3818125,13.9999632 14.5454688,13.9999632 L19.636375,13.9999632 C20.363625,13.9999632 20.6545313,14.1428343 20.9454375,14.5713865 C21.236375,15.1428405 21.0909062,15.7142638 20.6545313,16.2856871 L17.163625,20 L25.0181875,20 C28.9454687,20 32,16.8571411 32,13.1428589 C32,9.28570552 28.8,6.14284662 25.0181875,6.14284662 Z" id="路径"></path>
                    <path d="M19.6217977,15 L15.1824442,15 C14.7788561,15 14.2407579,15.5889092 14.1062189,15.8833638 L11.1466499,21.9197619 C11.0121398,22.3614279 11.1466499,22.8031256 11.550238,22.8031256 L14.509807,22.8031256 L11.1466499,28.6922806 C10.8776008,28.9867352 11.0121398,29.1339467 11.2811889,28.8394921 L18.9491605,21.3308527 C19.2182096,21.0363665 19.2182096,20.5947004 18.8146215,20.5947004 L15.5860034,20.5947004 L19.7563078,15.7361523 C20.1598959,15.2944546 20.0253858,15 19.6217977,15 L19.6217977,15 Z" id="路径"></path>
                </g>
            </g>
        </g>
    </g>
</svg>