<?xml version="1.0" encoding="UTF-8"?>
<svg width="33px" height="32px" viewBox="0 0 33 32" version="1.1" xmlns="http://www.w3.org/2000/svg" xmlns:xlink="http://www.w3.org/1999/xlink">
    <title>指标检验</title>
    <g id="页面-1" stroke="none" stroke-width="1" fill="none" fill-rule="evenodd">
        <g id="切图" transform="translate(-859.000000, -151.000000)">
            <g id="指标检验" transform="translate(859.750000, 151.000000)">
                <rect id="矩形" x="0" y="0" width="32" height="32"></rect>
                <g id="风" transform="translate(3.000000, 3.000000)" fill="#333333" fill-rule="nonzero">
                    <g id="数据检验">
                        <path d="M17.4964647,7.00000133 C15.5669554,7.00000133 14,8.55520507 14,10.5109556 C14,12.4667061 15.5666545,14.0000013 17.4964647,14.0000013 C19.426275,14.0000013 21.0003009,12.4667061 21,10.5109556 C21,8.55399633 19.426275,6.99834063 17.4964647,7.00000133 Z M19.77544,9.93604592 L17.6968473,12.0356372 C17.5688792,12.1647009 17.3949957,12.2372535 17.2136425,12.2372535 C17.0322894,12.2372535 16.8584058,12.1647009 16.7304378,12.0356372 L15.6636866,10.9640841 C15.4880303,10.7913485 15.4183024,10.5371563 15.4810928,10.2984404 C15.5438832,10.0597246 15.7295118,9.87328673 15.9671914,9.81022259 C16.204871,9.74715846 16.4579598,9.81719033 16.6299456,9.99361244 L17.2131912,10.5795519 L18.8087297,8.96496986 C18.9368953,8.83622642 19.110761,8.76393516 19.292028,8.76402011 C19.4732949,8.76410521 19.6470933,8.83655952 19.7751392,8.96542314 C19.9033497,9.09408672 19.9754114,9.26863927 19.9754679,9.45067194 C19.9755243,9.6327046 19.9035707,9.80730219 19.77544,9.93604592 L19.77544,9.93604592 Z" id="形状"></path>
                        <path d="M21.5953482,0 L4.40434102,0 C1.97190051,0 0,1.97190051 0,4.40434102 L0,21.5955036 C0,24.0280995 1.97190051,26 4.40434102,26 L21.5953482,26 C24.0279441,26 26,24.0282549 26,21.5955036 L26,4.40434102 C26,1.97190051 24.0279441,0 21.5953482,0 Z M5.54093012,21.4189943 C5.54093012,22.0601878 5.02114013,22.5799778 4.37994669,22.5799778 C3.73875325,22.5799778 3.21896327,22.0601878 3.21896327,21.4189943 L3.21896327,6.95300417 C3.21896327,6.31181073 3.73875325,5.79202075 4.37994669,5.79202075 C5.02114013,5.79202075 5.54093012,6.31181073 5.54093012,6.95300417 L5.54093012,21.4189943 Z M11.2694013,21.4189943 C11.2694013,22.0601878 10.7496113,22.5799778 10.1084179,22.5799778 C9.46722446,22.5799778 8.94743447,22.0601878 8.94743447,21.4189943 L8.94743447,11.6143402 C8.94743447,10.9731467 9.46722446,10.4533568 10.1084179,10.4533568 C10.7496113,10.4533568 11.2694013,10.9731467 11.2694013,11.6143402 L11.2694013,21.4189943 Z M16.9784503,21.4189943 C16.9784503,22.0602736 16.4585907,22.5801331 15.8173115,22.5801331 C15.1760322,22.5801331 14.6561727,22.0602736 14.6561727,21.4189943 L14.6561727,17.8292995 C14.6561727,17.1880202 15.1760322,16.6681607 15.8173115,16.6681607 C16.4585907,16.6681607 16.9784503,17.1880202 16.9784503,17.8292995 L16.9784503,21.4189943 Z M22.6873439,21.4189943 C22.6873439,22.0601878 22.1675539,22.5799778 21.5263605,22.5799778 C20.885167,22.5799778 20.365377,22.0601878 20.365377,21.4189943 L20.365377,17.8292995 C20.365377,17.188106 20.885167,16.6683161 21.5263605,16.6683161 C22.1675539,16.6683161 22.6873439,17.188106 22.6873439,17.8292995 L22.6873439,21.4189943 Z M17.9352672,15.7153836 C15.2100948,15.7153836 12.933809,13.4670659 12.933809,10.7154792 C12.933809,7.96560173 15.1835252,5.81517205 17.9313827,5.71806088 C20.6316947,5.81890112 22.9286457,7.96389257 22.9286457,10.7154792 C22.9286457,13.4655121 20.6602842,15.7153836 17.9352672,15.7153836 Z" id="形状"></path>
                    </g>
                </g>
            </g>
        </g>
    </g>
</svg>