<?xml version="1.0" encoding="UTF-8"?>
<svg width="33px" height="32px" viewBox="0 0 33 32" version="1.1" xmlns="http://www.w3.org/2000/svg" xmlns:xlink="http://www.w3.org/1999/xlink">
    <title>渠道管理</title>
    <g id="页面-1" stroke="none" stroke-width="1" fill="none" fill-rule="evenodd">
        <g id="切图" transform="translate(-1081.000000, -151.000000)">
            <g id="渠道管理" transform="translate(1081.550000, 151.000000)">
                <rect id="矩形" x="0" y="0" width="32" height="32"></rect>
                <g transform="translate(2.000000, 2.000000)" fill="#333333" fill-rule="nonzero" id="形状">
                    <path d="M18.8571429,0 L3.14285714,0 C1.40569196,0 0,1.40569196 0,3.14285714 L0,18.8571429 C0,20.594308 1.40569196,22 3.14285714,22 L12.5714286,22 L12.5714286,18.5103237 L14.1428571,18.0714286 L11.7857143,17.2857143 L11.7857143,12.5714286 L15.7112165,10.4751674 L19.6428571,12.5714286 L22,12.5714286 L22,3.14285714 C22,1.40569196 20.594308,0 18.8571429,0 Z M10.2142857,17.2857143 L6.28571429,18.8571429 L2.35714286,17.2857143 L2.35714286,12.5714286 L6.28264509,10.4751674 L10.2142857,12.5714286 L10.2142857,17.2857143 Z M14.1428571,8.89146205 L11,10.4751674 L7.85714286,8.89146205 L7.85714286,4.81863839 L10.9969308,3.14285714 L14.1428571,4.81863839 L14.1428571,8.89146205 L14.1428571,8.89146205 Z"></path>
                    <path d="M27,21.3125 L27,19.6875 L25.1496582,19.0717773 C25.0576172,18.7734375 24.9465332,18.487793 24.8005371,18.2180176 L25.670166,16.4787598 L24.5212402,15.329834 L22.7565918,16.2121582 C22.4931641,16.0725098 22.2233887,15.9519043 21.9345703,15.8630371 L21.3125,14 L19.6875,14 L19.0654297,15.8630371 C18.7797852,15.9519043 18.5068359,16.0756836 18.2434082,16.2121582 L16.4787598,15.329834 L15.329834,16.4787598 L16.1994629,18.2180176 C16.0534668,18.487793 15.9423828,18.7766113 15.8503418,19.0717773 L14,19.6875 L14,21.3125 L15.8503418,21.9282227 C15.9423828,22.2265625 16.0534668,22.512207 16.1994629,22.7819824 L15.329834,24.5212402 L16.4787598,25.670166 L18.2434082,24.7878418 C18.5068359,24.9274902 18.7766113,25.0480957 19.0654297,25.1369629 L19.6875,27 L21.3125,27 L21.9345703,25.1369629 C22.2202148,25.0449219 22.4931641,24.9243164 22.7565918,24.7878418 L24.5212402,25.670166 L25.670166,24.5212402 L24.8005371,22.7819824 C24.9465332,22.512207 25.0576172,22.2233887 25.1496582,21.9282227 L27,21.3125 Z M20.5,22.9375 C19.1542969,22.9375 18.0625,21.8457031 18.0625,20.5 C18.0625,19.1542969 19.1542969,18.0625 20.5,18.0625 C21.8457031,18.0625 22.9375,19.1542969 22.9375,20.5 C22.9375,21.8457031 21.8457031,22.9375 20.5,22.9375 Z"></path>
                </g>
            </g>
        </g>
    </g>
</svg>