<?xml version="1.0" encoding="UTF-8"?>
<svg width="33px" height="32px" viewBox="0 0 33 32" version="1.1" xmlns="http://www.w3.org/2000/svg" xmlns:xlink="http://www.w3.org/1999/xlink">
    <title>温度</title>
    <g id="页面-1" stroke="none" stroke-width="1" fill="none" fill-rule="evenodd">
        <g id="切图" transform="translate(-693.000000, -151.000000)">
            <g id="温度" transform="translate(693.400000, 151.000000)">
                <rect id="矩形" x="0" y="0" width="32" height="32"></rect>
                <g id="大气温度_面-(1)" transform="translate(1.000000, 1.000000)" fill="#333333" fill-rule="nonzero">
                    <path d="M13.3171913,0 L15.2542373,0 L15.2542373,4.2567945 L13.3171913,4.2567945 L13.3171913,0 Z M0,13.7719822 L4.11622276,13.7719822 L4.11622276,15.7751796 L0,15.7751796 L0,13.7719822 Z M3.30653752,24.583489 L6.21719129,21.5736849 L7.58692494,22.9899455 L4.67651331,26 L3.30653752,24.583489 Z M3.30677966,4.71101951 L4.67651331,3.29475893 L7.58716705,6.30456305 L6.21743341,7.72107401 L3.30677966,4.71101951 Z M15.9806295,15.3520042 L15.9806295,5.75919257 C15.9806295,5.60895277 15.9806295,5.46121696 16,5.31348115 C15.6718511,5.27738459 15.3421061,5.25899701 15.0121065,5.25839322 C10.3228295,5.25980288 6.38477994,8.90800209 5.86952512,13.7280577 C5.35427029,18.5481134 8.42667371,22.997776 13.0024213,24.0584009 C12.3731022,20.8108311 13.5166138,17.4679265 15.9806295,15.3520042 Z" id="形状"></path>
                    <path d="M25.8962497,16.0991237 L25.8962497,4.17750598 C25.8960498,1.8702775 23.9278403,0 21.5,0 C19.0721597,0 17.1039502,1.8702775 17.1037503,4.17750598 L17.1037503,16.0991237 C14.4693743,17.9105789 13.3635047,21.1289935 14.3653104,24.0688108 C15.3671161,27.0086281 18.2483319,29 21.5,29 C24.7516681,29 27.6328839,27.0086281 28.6346896,24.0688108 C29.6364953,21.1289935 28.5306257,17.9105789 25.8962497,16.0991237 Z M21.5,25.3125116 C19.7584211,25.3073954 18.2674603,24.1246133 17.9510159,22.4970956 C17.6345714,20.869578 18.5823249,19.2585693 20.2069854,18.6623575 L20.2069854,9.58413534 L22.7930146,9.58413534 L22.7930146,18.6623575 C24.4176751,19.2585693 25.3654286,20.869578 25.0489841,22.4970956 C24.7325397,24.1246133 23.241579,25.3073954 21.5,25.3125116 L21.5,25.3125116 Z" id="形状"></path>
                </g>
            </g>
        </g>
    </g>
</svg>