<?xml version="1.0" encoding="UTF-8"?>
<svg width="20px" height="20px" viewBox="0 0 20 20" version="1.1" xmlns="http://www.w3.org/2000/svg" xmlns:xlink="http://www.w3.org/1999/xlink">
    <title>系统管理</title>
    <g id="页面-1" stroke="none" stroke-width="1" fill="none" fill-rule="evenodd">
        <g id="切图" transform="translate(-265.000000, -29.000000)">
            <g id="系统管理" transform="translate(265.000000, 29.000000)">
                <rect id="矩形" x="0" y="0" width="20" height="20"></rect>
                <g id="设置_setting-two" transform="translate(2.000000, 2.000000)" stroke="#FFFFFF" stroke-linejoin="round">
                    <path d="M6.070615,16.1052632 C4.6463975,15.687344 3.378665,14.9114479 2.37484475,13.8833845 C2.749325,13.4459454 2.975,12.8807472 2.975,12.2636076 C2.975,10.8755565 1.83332675,9.75031227 0.425,9.75031227 C0.33980875,9.75031227 0.25559075,9.75445921 0.17254575,9.76250175 C0.05941075,9.21732612 0,8.65292378 0,8.07478209 C0,7.19906624 0.13632725,6.35472469 0.38921075,5.56123548 C0.40111925,5.56140303 0.413049,5.56148681 0.425,5.56148681 C1.83332675,5.56148681 2.975,4.43624263 2.975,3.04819153 C2.975,2.64970857 2.880905,2.27292372 2.713455,1.93815697 C3.6964375,1.03730398 4.8962125,0.363120902 6.2271425,0 C6.64887,0.814747497 7.5083475,1.37267392 8.5,1.37267392 C9.4916525,1.37267392 10.35113,0.814747497 10.7728575,0 C12.1037875,0.363120902 13.3035625,1.03730398 14.286545,1.93815697 C14.119095,2.27292372 14.025,2.64970857 14.025,3.04819153 C14.025,4.43624263 15.1666775,5.56148681 16.575,5.56148681 C16.5869425,5.56148681 16.598885,5.56140303 16.610785,5.56123548 C16.86366,6.35472469 17,7.19906624 17,8.07478209 C17,8.65292378 16.940585,9.21732612 16.82745,9.76250175 C16.744405,9.75445921 16.6602125,9.75031227 16.575,9.75031227 C15.1666775,9.75031227 14.025,10.8755565 14.025,12.2636076 C14.025,12.8807472 14.250675,13.4459454 14.6251425,13.8833845 C13.621335,14.9114479 12.3536025,15.687344 10.929385,16.1052632 C10.60069,15.0918606 9.6373,14.3580203 8.5,14.3580203 C7.3627,14.3580203 6.39931,15.0918606 6.070615,16.1052632 Z" id="路径"></path>
                    <path d="M8.5,10.7368421 C10.2295263,10.7368421 11.6315789,9.33478947 11.6315789,7.60526316 C11.6315789,5.87573684 10.2295263,4.47368421 8.5,4.47368421 C6.77047368,4.47368421 5.36842105,5.87573684 5.36842105,7.60526316 C5.36842105,9.33478947 6.77047368,10.7368421 8.5,10.7368421 Z" id="路径"></path>
                </g>
            </g>
        </g>
    </g>
</svg>