<?xml version="1.0" encoding="UTF-8"?>
<svg width="21px" height="20px" viewBox="0 0 21 20" version="1.1" xmlns="http://www.w3.org/2000/svg" xmlns:xlink="http://www.w3.org/1999/xlink">
    <title>预报检验</title>
    <g id="页面-1" stroke="none" stroke-width="1" fill="none" fill-rule="evenodd">
        <g id="切图" transform="translate(-156.000000, -29.000000)">
            <g id="预报检验" transform="translate(156.428571, 29.000000)">
                <rect id="矩形" x="0" y="0" width="20" height="20"></rect>
                <g id="多云_cloudy" transform="translate(1.000000, 2.000000)" stroke="#FFFFFF" stroke-linejoin="round">
                    <path d="M2.5,11.455675 C0.9819425,10.294625 0,8.446075 0,6.36400417 C0,2.849275 2.79821667,0 6.25001667,0 C9.13614167,0 11.5654,1.99200833 12.2840208,4.69942917 C12.8495125,4.4072875 13.4892083,4.24265417 14.1666708,4.24265417 C16.4678708,4.24265417 18.3333333,6.14217083 18.3333333,8.48535417 C18.3333333,10.2251417 17.304925,11.7203167 15.8333542,12.375" id="路径" stroke-linecap="round"></path>
                    <path d="M10.0833333,16.5 C11.6021125,16.5 12.8333333,15.2687792 12.8333333,13.75 C12.8333333,12.2312208 11.6021125,11 10.0833333,11 C8.56455417,11 7.33333333,12.2312208 7.33333333,13.75 C7.33333333,15.2687792 8.56455417,16.5 10.0833333,16.5 Z" id="路径"></path>
                    <path d="M8.36119167,4.47214167 C7.86357917,3.97448333 7.17607917,3.66666667 6.41666667,3.66666667 C4.8978875,3.66666667 3.66666667,4.8978875 3.66666667,6.41666667 C3.66666667,7.17607917 3.97448333,7.86357917 4.47214167,8.36119167" id="路径" stroke-linecap="round"></path>
                </g>
            </g>
        </g>
    </g>
</svg>