<?xml version="1.0" encoding="UTF-8"?>
<svg width="33px" height="32px" viewBox="0 0 33 32" version="1.1" xmlns="http://www.w3.org/2000/svg" xmlns:xlink="http://www.w3.org/1999/xlink">
    <title>风</title>
    <g id="页面-1" stroke="none" stroke-width="1" fill="none" fill-rule="evenodd">
        <g id="切图" transform="translate(-471.000000, -151.000000)">
            <g id="风" transform="translate(471.600000, 151.000000)">
                <rect id="矩形" x="0" y="0" width="32" height="32"></rect>
                <g transform="translate(1.000000, 5.000000)" fill="#333333" fill-rule="nonzero" id="形状">
                    <path d="M11.5733333,3.73474801 C11.5733333,3.20954907 11.6622222,2.72325376 11.84,2.27586207 C12.0177778,1.82847038 12.2622222,1.43457118 12.5733333,1.09416446 C12.8844444,0.753757737 13.2444444,0.486295314 13.6533333,0.291777188 C14.0622222,0.0972590628 14.5066667,0 14.9866667,0 C15.4488889,0 15.8844444,0.0972590628 16.2933333,0.291777188 C16.7022222,0.486295314 17.0622222,0.753757737 17.3733333,1.09416446 C17.6844444,1.43457118 17.9288889,1.82847038 18.1066667,2.27586207 C18.2844444,2.72325376 18.3733333,3.20954907 18.3733333,3.73474801 C18.3733333,4.24049514 18.2844444,4.7219275 18.1066667,5.17904509 C17.9288889,5.63616269 17.6844444,6.03006189 17.3733333,6.36074271 C17.0622222,6.69142352 16.7022222,6.95402299 16.2933333,7.14854111 C15.8844444,7.34305924 15.4488889,7.4403183 14.9866667,7.4403183 L14.6666667,7.4403183 C14.5777778,7.4403183 14.4888889,7.42086649 14.4,7.38196286 L1.68,7.38196286 L1.68,3.73474801 L11.5733333,3.73474801 Z M18.4266667,14.7639257 C18.8888889,14.7639257 19.32,14.8563218 19.72,15.0411141 C20.12,15.2259063 20.4711111,15.4836428 20.7733333,15.8143236 C21.0755556,16.1450044 21.3111111,16.5291777 21.48,16.9668435 C21.6488889,17.4045093 21.7333333,17.8762157 21.7333333,18.3819629 C21.7333333,18.88771 21.6488889,19.3594164 21.48,19.7970822 C21.3111111,20.234748 21.0755556,20.6140584 20.7733333,20.9350133 C20.4711111,21.2559682 20.12,21.5137047 19.72,21.7082228 C19.32,21.9027409 18.8888889,22 18.4266667,22 C17.9644444,22 17.5333333,21.9027409 17.1333333,21.7082228 C16.7333333,21.5137047 16.3866667,21.2559682 16.0933333,20.9350133 C15.8,20.6140584 15.5644444,20.234748 15.3866667,19.7970822 C15.2088889,19.3594164 15.12,18.88771 15.12,18.3819629 L15.12,18.3527851 L0,18.3527851 L0,14.7055703 L18.3733333,14.7055703 L18.3733333,14.7639257 L18.4266667,14.7639257 L18.4266667,14.7639257 Z M25.84,3.70557029 C26.4088889,3.70557029 26.9466667,3.82714412 27.4533333,4.07029178 C27.96,4.31343943 28.4,4.64412025 28.7733333,5.06233422 C29.1466667,5.48054819 29.4444444,5.9668435 29.6666667,6.52122016 C29.8888889,7.07559682 30,7.66401415 30,8.28647215 C30,8.92838196 29.8888889,9.5265252 29.6666667,10.0809019 C29.4444444,10.6352785 29.1466667,11.1167109 28.7733333,11.5251989 C28.4,11.933687 27.96,12.2595049 27.4533333,12.5026525 C26.9466667,12.7458002 26.4088889,12.867374 25.84,12.867374 L25.7866667,12.867374 L0,12.867374 L0,9.22015915 L21.7333333,9.22015915 C21.68,8.92838196 21.6533333,8.61715296 21.6533333,8.28647215 C21.6533333,7.66401415 21.7644444,7.07559682 21.9866667,6.52122016 C22.2088889,5.9668435 22.5066667,5.48054819 22.88,5.06233422 C23.2533333,4.64412025 23.6933333,4.31343943 24.2,4.07029178 C24.7066667,3.82714412 25.2533333,3.70557029 25.84,3.70557029 Z"></path>
                </g>
            </g>
        </g>
    </g>
</svg>