<?xml version="1.0" encoding="UTF-8"?>
<svg width="16px" height="16px" viewBox="0 0 16 16" version="1.1" xmlns="http://www.w3.org/2000/svg" xmlns:xlink="http://www.w3.org/1999/xlink">
    <title>二级降水</title>
    <g id="页面-1" stroke="none" stroke-width="1" fill="none" fill-rule="evenodd">
        <g id="切图" transform="translate(-35.000000, -99.000000)">
            <g id="二级降水" transform="translate(35.000000, 99.000000)">
                <g id="降水" transform="translate(0.000000, 0.993103)" fill="#4B92E3" fill-rule="nonzero">
                    <path d="M7.98834996,12.5023113 L7.97617943,12.5139561 L6.37940584,14.0999696 C6.16984089,14.310455 6.16984089,14.6412685 6.37940584,14.851754 C6.47808265,14.9508284 6.6148734,15.0068969 6.75790934,15.0068969 C6.90094527,15.0068969 7.03773603,14.9508284 7.13641283,14.851754 L8.73172595,13.2657405 C8.9412909,13.055255 8.9412909,12.7244415 8.73172595,12.5139561 C8.63548978,12.4168406 8.50244689,12.3608785 8.36259516,12.3586877 C8.22274342,12.356497 8.08785719,12.4082621 7.98834996,12.5023113 L7.98834996,12.5023113 Z M4.34096608,12.5170023 L4.32700695,12.529841 L2.83982236,14.0073166 C2.60895977,14.2384129 2.60895977,14.6050857 2.83982236,14.836182 C2.94691631,14.9434105 3.09460789,15.0049179 3.24963043,15.0068499 C3.40465298,15.008782 3.55396978,14.9509762 3.66394812,14.846453 L3.67468591,14.836182 L5.16025983,13.3581928 C5.39103733,13.1261944 5.39103733,12.7618394 5.16025983,12.529841 C5.0542193,12.4227985 4.90758223,12.3611102 4.75343429,12.3586946 C4.59928636,12.3562791 4.45061543,12.4133398 4.34096608,12.5170023 L4.34096608,12.5170023 Z M10.5611143,12.5171197 L10.547693,12.529958 L9.0622259,14.0073888 C8.83112425,14.2394484 8.83112425,14.6041694 9.0622259,14.836229 C9.16921901,14.943424 9.31681106,15.0049178 9.47173518,15.0068499 C9.6266593,15.0087821 9.77587719,14.9509899 9.88575554,14.8464997 L9.89649257,14.836229 L11.3824965,13.3582847 C11.6132574,13.1262933 11.6132574,12.7619494 11.3824965,12.529958 C11.2760928,12.4227377 11.1290441,12.3610074 10.9745129,12.3586887 C10.8199818,12.35637 10.6709813,12.413658 10.5611143,12.5176333 L10.5611143,12.5171197 Z M15.1509786,5.22449338 L15.1509786,5.22296022 C14.7391785,4.77222694 14.2014156,4.46224472 13.6109824,4.3352614 C13.521045,3.23262593 13.0629414,2.19511899 12.3134856,1.39670746 C11.4870026,0.505682958 10.3387529,0.000716683647 9.13749337,0 C7.48249744,0.00817684574 5.96600117,0.962312534 5.19500307,2.48167268 C4.88574927,2.30320338 4.53664808,2.20937771 4.18150556,2.20928151 C3.02400841,2.20928151 2.07901073,3.19561353 2.0535108,4.41702986 C1.54300388,4.59631173 1.08959288,4.91368707 0.741514023,5.33539185 C0.260933102,5.92195566 -0.00165884769,6.66307995 7.8857729e-06,7.42815331 C7.8857729e-06,9.17288777 1.33751256,10.5931037 2.98300851,10.5931037 L13.0294838,10.5931037 C13.8134819,10.5931037 14.55448,10.2655188 15.1194787,9.67065325 C15.687833,9.07117001 16.0038998,8.26802833 16.0000079,7.43326383 C16.0038505,6.61295404 15.7000185,5.82231566 15.1509786,5.22398233 L15.1509786,5.22449338 Z" id="形状"></path>
                </g>
                <g id="云">
                    <rect id="矩形" x="0" y="0" width="16" height="15.8896503"></rect>
                </g>
            </g>
        </g>
    </g>
</svg>