<?xml version="1.0" encoding="UTF-8"?>
<svg width="16px" height="16px" viewBox="0 0 16 16" version="1.1" xmlns="http://www.w3.org/2000/svg" xmlns:xlink="http://www.w3.org/1999/xlink">
    <title>二级其他</title>
    <g id="页面-1" stroke="none" stroke-width="1" fill="none" fill-rule="evenodd">
        <g id="切图" transform="translate(-150.000000, -99.000000)" fill="#4B92E3" fill-rule="nonzero">
            <g id="其他" transform="translate(150.000000, 99.000000)">
                <path d="M3.49936868,2.27998666e-07 L4.00000046,2.27998666e-07 C4.92830922,-0.00033463299 5.81871176,0.368199812 6.47524383,1.02449498 C7.1317759,1.68079014 7.50063161,2.57105962 7.50063161,3.49936868 L7.50063161,7.49936868 L3.50063184,7.49936868 C2.57232284,7.49970354 1.6819203,7.13116909 1.02538823,6.47487393 C0.368856165,5.81857876 4.56308202e-07,4.92830928 4.56308202e-07,4.00000023 L4.56308202e-07,3.49936868 C4.56308202e-07,1.56672097 1.56672097,2.27998666e-07 3.49936868,2.27998666e-07 Z M3.49936868,8.49936839 L7.49936868,8.49936839 L7.49936868,12.4993684 C7.49970352,13.4276042 7.13122686,14.3179429 6.47502277,14.9744629 C5.81881868,15.6309828 4.92865738,15.9998879 4.00042128,15.9999995 L3.49936868,15.9999995 C1.56672097,15.9999995 2.27998666e-07,14.433279 2.27998666e-07,12.5006313 L2.27998666e-07,11.9999998 C-0.00033463299,11.0716908 0.368199812,10.1812882 1.02449498,9.52475617 C1.68079014,8.8682241 2.57105962,8.49936839 3.49936868,8.49936839 L3.49936868,8.49936839 Z M11.9999998,4.56308202e-07 L12.5006313,4.56308202e-07 C14.433279,4.56308202e-07 15.9999998,1.56672097 15.9999998,3.49936868 L15.9999998,4.00000046 C16.0003346,4.92830922 15.6318002,5.81871176 14.975505,6.47524383 C14.3192099,7.1317759 13.4289404,7.50063161 12.5006313,7.50063161 L8.50063132,7.50063161 L8.50063132,3.50063184 C8.50029648,2.57239579 8.86877314,1.68205707 9.52497723,1.02553711 C10.1811813,0.369017155 11.0713426,0.000112083488 11.9995787,4.56308202e-07 L11.9999998,4.56308202e-07 L11.9999998,4.56308202e-07 Z M8.49936839,8.49936816 L12.4993684,8.49936816 C13.4278961,8.49903316 14.3184901,8.86774097 14.9750585,9.52430939 C15.631627,10.1808778 16.0003348,11.0714719 15.9999998,11.9999998 L15.9999998,12.5006313 C15.9999998,14.433279 14.433279,15.9999998 12.5006313,15.9999998 L11.9999998,15.9999998 C11.0716908,16.0003346 10.1812882,15.6318002 9.52475617,14.975505 C8.8682241,14.3192099 8.49936839,13.4289404 8.49936839,12.5006313 L8.49936839,8.49936816 L8.49936839,8.49936816 Z" id="形状"></path>
            </g>
        </g>
    </g>
</svg>