<?xml version="1.0" encoding="UTF-8"?>
<svg width="16px" height="16px" viewBox="0 0 16 16" version="1.1" xmlns="http://www.w3.org/2000/svg" xmlns:xlink="http://www.w3.org/1999/xlink">
    <title>二级大风</title>
    <g id="页面-1" stroke="none" stroke-width="1" fill="none" fill-rule="evenodd">
        <g id="切图" transform="translate(-58.000000, -99.000000)" fill="#4B92E3" fill-rule="nonzero">
            <g id="二级大风" transform="translate(58.000000, 99.000000)">
                <path d="M14.1216978,11.9067422 C12.5050869,12.4118139 9.70336501,10.2611315 9.40444857,9.31116674 C9.06887413,8.24527015 9.96180032,8.06409461 9.96180032,8.06409461 C10.574011,7.88167563 12.7667417,8.60198921 13.8113486,7.63244041 C14.4150351,7.07135944 15.514501,7.24533038 15.7893446,7.90334429 C16.4121283,9.39601277 15.5942742,11.4467999 14.1216978,11.9067422 Z M10.0448113,6.6764243 C8.95328433,6.67433851 9.06124619,5.74723102 9.06124619,5.74723102 C9.08118493,5.09344112 10.4264644,3.17603046 9.85061899,1.85671121 C9.5170933,1.09428547 10.0181044,0.0753650605 10.7133444,0.0103591012 C12.2888888,-0.136238023 13.9368712,1.29564852 13.9081338,2.8750099 C13.8764696,4.60852044 11.0172547,6.67825167 10.0448113,6.6764243 Z M7.84628196,8.59814919 C7.27460725,8.59814919 6.8116261,8.13326973 6.8116261,7.55990071 C6.8116261,6.98654997 7.27460725,6.52165222 7.84628196,6.52165222 C8.41821276,6.52165222 8.88194389,6.98654997 8.88194389,7.55990071 C8.88194389,8.13326973 8.41821276,8.59814919 7.84628196,8.59814919 Z M6.63557985,5.91006592 C6.03569824,5.68851537 4.67428489,3.78315504 3.27357942,3.93757848 C2.46364594,4.0275811 1.6736695,3.22386607 1.8288441,2.52496515 C2.18000368,0.942257472 4.01634313,-0.22384521 5.47099294,0.292380736 C7.06799437,0.859185159 8.10288802,4.28884837 7.80044115,5.23733195 C7.46133627,6.30198511 6.63557985,5.91006592 6.63557985,5.91006592 Z M5.7734581,6.98283796 C6.65522591,7.64295473 6.03685066,8.32773903 6.03685066,8.32773903 C5.64585018,8.84458669 3.45926577,9.58446605 3.16973335,10.9991822 C3.00281502,11.8170139 2.01367071,12.339585 1.41437445,11.9726442 C0.0556134979,11.1409702 -0.457763266,8.98847752 0.470412411,7.7281482 C1.48887947,6.34471898 4.98759745,6.39467574 5.7734581,6.98283796 Z M6.76466946,9.50079031 C7.64907138,8.84396498 8.09262597,9.65912691 8.09262597,9.65912691 C8.45080985,10.2000021 8.4610536,12.5629276 9.68254823,13.2823086 C10.3892027,13.6983284 10.5678465,14.8246961 10.0424699,15.2963596 C8.85179798,16.3655476 6.69806676,16.201195 5.81686602,14.9059581 C4.84912384,13.4846042 5.97672347,10.0856428 6.76466946,9.50079031 Z" id="形状"></path>
            </g>
        </g>
    </g>
</svg>