<?xml version="1.0" encoding="UTF-8"?>
<svg width="16px" height="16px" viewBox="0 0 16 16" version="1.1" xmlns="http://www.w3.org/2000/svg" xmlns:xlink="http://www.w3.org/1999/xlink">
    <title>二级云</title>
    <g id="页面-1" stroke="none" stroke-width="1" fill="none" fill-rule="evenodd">
        <g id="切图" transform="translate(-104.000000, -99.000000)">
            <g id="二级云" transform="translate(104.000000, 99.000000)">
                <rect id="矩形" x="0" y="0" width="16" height="16"></rect>
                <g id="编组-17" transform="translate(0.000000, 2.000000)" fill="#4B92E3" fill-rule="nonzero">
                    <g id="云端,云,云服务">
                        <path d="M16,6.95115279 C16,9.46619773 13.9835873,11.5044939 11.4998046,11.5044939 L4,11.5044939 C1.76787808,11.3872606 1.7787864e-16,9.7116061 1.7787864e-16,7.67018367 C1.7787864e-16,6.11645174 1.02540055,4.77842907 2.49941383,4.1766315 C2.80734662,4.05158265 3.02774521,3.7780383 3.09652208,3.45291129 C3.5123095,1.48339195 5.32395467,0 7.49980461,0 C9.10355608,0 10.5072294,0.805001954 11.3044158,2.01641266 C11.4607268,2.25556858 11.7123877,2.41500586 11.9953107,2.45720985 C14.2649472,2.80109418 16,4.67839 16,6.95115279 Z" id="路径"></path>
                    </g>
                </g>
            </g>
        </g>
    </g>
</svg>