<?xml version="1.0" encoding="UTF-8"?>
<svg width="16px" height="16px" viewBox="0 0 16 16" version="1.1" xmlns="http://www.w3.org/2000/svg" xmlns:xlink="http://www.w3.org/1999/xlink">
    <title>二级气温</title>
    <g id="页面-1" stroke="none" stroke-width="1" fill="none" fill-rule="evenodd">
        <g id="切图" transform="translate(-81.000000, -99.000000)" fill="#4B92E3" fill-rule="nonzero">
            <g id="二级气温" transform="translate(81.000000, 99.000000)">
                <path d="M7.45750123,0 L8.54222868,0 L8.54222868,2.30504583 L7.45750123,2.30504583 L7.45750123,0 Z M0,7.45750123 L2.30504583,7.45750123 L2.30504583,8.54222868 L0,8.54222868 L0,7.45750123 Z M1.85162976,13.3119109 L3.48156835,11.6821079 L4.24860625,12.4490102 L2.61880325,14.0789488 L1.85162976,13.3119109 Z M1.85176535,2.55100778 L2.61880325,1.78410547 L4.24874183,3.41390847 L3.48170393,4.18094636 L1.85176535,2.55100778 Z M8.94900147,8.31308 L8.94900147,3.11859143 C8.94900147,3.03723687 8.94900147,2.95723822 8.95984875,2.87723957 C8.77608844,2.85769336 8.59143438,2.84773652 8.40663774,2.84740956 C5.78068691,2.8481729 3.57541641,4.82366558 3.28687858,7.4337162 C2.99834075,10.0437668 4.71885762,12.4532504 7.28123301,13.0275767 C6.92882028,11.269024 7.56917597,9.45884779 8.94900147,8.31308 Z" id="形状"></path>
                <path d="M14.3726387,8.88256191 L14.3726387,2.30504583 C14.3725339,1.03207829 13.3405604,0.000189781879 12.0675929,0.000189781879 C10.7946253,0.000189781879 9.76265187,1.03207829 9.76254707,2.30504583 L9.76254707,8.88256191 C8.38128859,9.88199641 7.80145799,11.6576928 8.32672568,13.2796787 C8.85199338,14.9016645 10.3626752,16.0003645 12.0675929,16.0003645 C13.7725106,16.0003645 15.2831924,14.9016645 15.8084601,13.2796787 C16.3337278,11.6576928 15.7538972,9.88199641 14.3726387,8.88256191 Z M12.0675929,13.9658659 C11.1544466,13.9630431 10.3727046,13.3104666 10.2067862,12.412516 C10.0408677,11.5145654 10.5377947,10.6257234 11.3896382,10.2967753 L11.3896382,5.28804633 L12.7455475,5.28804633 L12.7455475,10.2967753 C13.5973911,10.6257234 14.0943181,11.5145654 13.9283996,12.412516 C13.7624812,13.3104666 12.9807392,13.9630431 12.0675929,13.9658659 L12.0675929,13.9658659 Z" id="形状"></path>
            </g>
        </g>
    </g>
</svg>