<?xml version="1.0" encoding="UTF-8"?>
<svg width="16px" height="16px" viewBox="0 0 16 16" version="1.1" xmlns="http://www.w3.org/2000/svg" xmlns:xlink="http://www.w3.org/1999/xlink">
    <title>二级气压</title>
    <g id="页面-1" stroke="none" stroke-width="1" fill="none" fill-rule="evenodd">
        <g id="切图" transform="translate(-127.000000, -99.000000)" fill="#4B92E3" fill-rule="nonzero">
            <g id="气压" transform="translate(127.000000, 99.000000)">
                <path d="M8,0 C12.418278,0 16,3.581722 16,8 C16,12.418278 12.418278,16 8,16 C3.581722,16 0,12.418278 0,8 C0,3.581722 3.581722,0 8,0 Z M8,5.860358 C7.60347535,5.860358 7.28190097,6.18193238 7.28190097,6.57845703 L7.28190097,6.57845703 L7.28121537,11.6238005 C6.84120199,11.8601713 6.54202868,12.3247511 6.54202868,12.8592065 C6.54202868,13.633203 7.16947679,14.2606511 7.94347325,14.2606511 C8.71746972,14.2606511 9.34491783,13.633203 9.34491783,12.8592065 C9.34491783,12.3719565 9.09625915,11.9427838 8.71891748,11.6916642 L8.71809943,6.57845703 C8.71809943,6.18193238 8.39652465,5.860358 8,5.860358 Z M7.94347325,1.58777347 C4.23364388,1.58777347 1.21511567,4.60630168 1.21511567,8.31613106 C1.21511567,8.71265571 1.53669004,9.03423008 1.9332147,9.03423008 C2.32973935,9.03423008 2.65131372,8.71265571 2.65131372,8.31613106 C2.65131372,5.39809484 5.02501832,3.02397153 7.94347325,3.02397153 C10.8619282,3.02397153 13.2356328,5.39809484 13.2356328,8.31613106 C13.2356328,8.71265571 13.5572072,9.03423008 13.9537318,9.03423008 C14.3502565,9.03423008 14.6718308,8.71265571 14.6718308,8.31613106 C14.6718308,4.60630169 11.6533026,1.58777347 7.94347325,1.58777347 Z" id="形状结合"></path>
            </g>
        </g>
    </g>
</svg>