<?xml version="1.0" encoding="UTF-8"?>
<svg width="33px" height="32px" viewBox="0 0 33 32" version="1.1" xmlns="http://www.w3.org/2000/svg" xmlns:xlink="http://www.w3.org/1999/xlink">
    <title>云低高</title>
    <g id="页面-1" stroke="none" stroke-width="1" fill="none" fill-rule="evenodd">
        <g id="切图" transform="translate(-582.000000, -151.000000)">
            <g id="云低高" transform="translate(582.500000, 151.000000)">
                <g id="风预报">
                    <rect id="矩形" x="0" y="0" width="32" height="32"></rect>
                </g>
                <g id="云盘_复制-01" transform="translate(0.000000, 5.000000)" fill="#333333" fill-rule="nonzero">
                    <path d="M20.2832842,7.99828624 C20.0744691,7.99828624 19.8712977,8.01517886 19.6624825,8.03207148 C18.3136498,5.11527985 15.4523183,3.12195122 12.1338512,3.12195122 C7.78259569,3.12195122 4.22145147,6.5455213 3.80946492,10.9488631 C1.63665902,11.4669033 0,13.5109098 0,15.9378156 C0,18.775775 2.20666782,21.0731707 4.93819523,21.0731707 L19.7866429,21.0731707 L19.7866429,21.0393855 C19.9446651,21.0562781 20.1026874,21.0562781 20.2607096,21.0562781 C23.7259118,21.0562781 26.5365854,18.1394865 26.5365854,14.5244667 C26.5590249,10.9150779 23.7484864,7.99828624 20.2832842,7.99828624 L20.2832842,7.99828624 Z" id="路径"></path>
                    <path d="M26.7198321,4.07544005 C26.5389648,4.07544005 26.3580975,4.09283169 26.1947336,4.1102233 C25.0628546,1.68119147 22.6649048,0 19.8702139,0 C17.880674,0 16.107008,0.846392938 14.8292683,2.22033221 C17.1630394,2.98556417 19.1292416,4.6377696 20.3778091,6.75375199 C24.6311069,6.8523046 28.0442472,10.4233872 28.1259292,14.8292683 C30.360515,14.191575 32,12.0697954 32,9.55960259 C32.0058236,6.52186349 29.6428804,4.07544005 26.7198321,4.07544005 L26.7198321,4.07544005 Z" id="路径"></path>
                </g>
            </g>
        </g>
    </g>
</svg>