<?xml version="1.0" encoding="UTF-8"?>
<svg width="33px" height="32px" viewBox="0 0 33 32" version="1.1" xmlns="http://www.w3.org/2000/svg" xmlns:xlink="http://www.w3.org/1999/xlink">
    <title>云量</title>
    <g id="页面-1" stroke="none" stroke-width="1" fill="none" fill-rule="evenodd">
        <g id="切图" transform="translate(-527.000000, -151.000000)">
            <g id="云量" transform="translate(527.050000, 151.000000)">
                <g id="风预报">
                    <rect id="矩形" x="0" y="0" width="32" height="32"></rect>
                </g>
                <g id="云端,云,云服务-(1)" transform="translate(0.000000, 5.000000)" fill="#333333" fill-rule="nonzero">
                    <path d="M32,13.810559 C32,18.8074534 27.9671747,22.8571429 22.9996092,22.8571429 L8,22.8571429 C3.53575615,22.6242236 0,19.2950311 0,15.2391304 C0,12.1521739 2.05080109,9.49378882 4.99882767,8.29813665 C5.61469324,8.04968944 6.05549043,7.50621118 6.19304416,6.86024845 C7.02461899,2.94720497 10.6479093,0 14.9996092,0 C18.2071122,0 21.0144588,1.59937888 22.6088316,4.00621118 C22.9214537,4.48136646 23.4247753,4.79813665 23.9906213,4.88198758 C28.5298945,5.56521739 32,9.29503106 32,13.810559 Z" id="路径"></path>
                </g>
            </g>
        </g>
    </g>
</svg>