<?xml version="1.0" encoding="UTF-8"?>
<svg width="32px" height="32px" viewBox="0 0 32 32" version="1.1" xmlns="http://www.w3.org/2000/svg" xmlns:xlink="http://www.w3.org/1999/xlink">
    <title>历史检索</title>
    <g id="页面-1" stroke="none" stroke-width="1" fill="none" fill-rule="evenodd">
        <g id="切图" transform="translate(-1137.000000, -151.000000)">
            <g id="历史检索" transform="translate(1137.000000, 151.000000)">
                <rect id="矩形" x="0" y="0" width="32" height="32"></rect>
                <g id="home_zhanghu" transform="translate(3.000000, 3.000000)" fill="#1055CD" fill-rule="nonzero">
                    <path d="M22.972973,0 C24.0924691,0 25,0.895430503 25,2 L25,24 C25,25.1045695 24.0924691,26 22.972973,26 L5.40540541,26 C4.28590929,26 3.37837837,25.1045695 3.37837837,24 L3.37837837,2 C3.37837837,0.895430503 4.28590929,0 5.40540541,0 L22.972973,0 Z M2.02702701,0.66666666 L2.02702701,25.3333333 C0.9075309,25.3333333 0,24.4379028 0,23.3333333 L0,2.66666666 C0,1.56209717 0.9075309,0.66666666 2.02702701,0.66666666 L2.02702701,0.66666666 Z M20.5135135,18.5886667 L7.86486486,18.5886667 C7.37657797,18.5886667 6.98074323,18.9792236 6.98074323,19.461 C6.98074323,19.9427764 7.37657797,20.3333333 7.86486486,20.3333333 L20.5135135,20.3333333 C21.0018004,20.3333333 21.3976351,19.9427764 21.3976351,19.461 C21.3976351,18.9792236 21.0018004,18.5886667 20.5135135,18.5886667 L20.5135135,18.5886667 Z M13.5476351,3.61666668 C11.1762624,3.61666668 9.0728789,5.11885981 8.33223778,7.34156803 C7.59159666,9.56427624 8.38112609,12.0049683 10.2898977,13.3933311 C12.1986694,14.7816939 14.7951894,14.8038765 16.7280405,13.4483333 L18.7702703,15.4633333 L18.8162162,15.5043333 C19.1888612,15.8130068 19.7411497,15.7800332 20.0733532,15.4292777 C20.4055566,15.0785221 20.4015307,14.5326152 20.0641892,14.1866667 L18.0219595,12.1716667 L18.0949324,12.0676667 C19.2327154,10.4076138 19.3485967,8.26339013 18.3961868,6.49336828 C17.443777,4.72334642 15.5787208,3.61666668 13.5476351,3.61666668 L13.5476351,3.61666668 Z M13.5476351,5.42233334 C15.5689189,5.42233334 17.2074324,7.03900001 17.2074324,9.03333333 C17.2074324,11.028 15.5689189,12.6446667 13.5476351,12.6446667 C11.5260135,12.6446667 9.88749999,11.028 9.88749999,9.03333333 C9.88749999,7.03900001 11.5260135,5.42233334 13.5476351,5.42233334 Z" id="形状"></path>
                </g>
            </g>
        </g>
    </g>
</svg>