<?xml version="1.0" encoding="UTF-8"?>
<svg width="32px" height="32px" viewBox="0 0 32 32" version="1.1" xmlns="http://www.w3.org/2000/svg" xmlns:xlink="http://www.w3.org/1999/xlink">
    <title>地面观测</title>
    <g id="页面-1" stroke="none" stroke-width="1" fill="none" fill-rule="evenodd">
        <g id="切图" transform="translate(-28.000000, -151.000000)">
            <g id="地面观测" transform="translate(28.000000, 151.000000)">
                <rect id="矩形" x="0" y="0" width="32" height="32"></rect>
                <g id="地面观测-copy" transform="translate(2.000000, 1.000000)" fill="#1055CD" fill-rule="nonzero">
                    <path d="M27.1932104,3.48837209 L18.3597471,0 L9.52628388,0 L0.692820645,3.48837209 C0.346410321,3.6627907 0,4.0116279 0,4.53488372 L0,8.02325581 C0,8.54651163 0.519615484,9.06976744 1.03923097,9.06976744 L8.66025807,9.06976744 L8.66025807,28.9534884 C8.66025807,29.4767442 9.17987356,30 9.69948904,30 L17.8401316,30 C18.3597471,30 18.8793626,29.4767442 18.8793626,28.9534884 L18.8793626,8.89534884 L26.6735949,8.89534884 C27.1932104,8.89534884 27.7128258,8.37209302 27.7128258,7.84883721 L27.7128258,4.36046512 C27.886031,4.01162791 27.7128258,3.6627907 27.1932104,3.48837209 L27.1932104,3.48837209 Z M13.5100026,6.45348837 C13.5100026,6.97674419 12.9903871,7.5 12.4707716,7.5 L10.73872,7.5 L10.73872,5.40697675 L12.4707716,5.40697675 C12.9903871,5.40697675 13.5100026,5.93023256 13.5100026,6.45348837 Z M10.73872,13.7790698 L12.4707716,13.7790698 C12.9903871,13.7790698 13.5100026,14.3023256 13.5100026,14.8255814 C13.5100026,15.3488372 12.9903871,15.872093 12.4707716,15.872093 L10.73872,15.872093 L10.73872,13.7790698 L10.73872,13.7790698 Z M1.90525678,6.80232558 L1.90525678,5.05813953 L8.83346324,2.44186046 L8.83346324,6.80232558 L1.90525678,6.80232558 Z M12.9903871,24.9418605 L10.73872,24.9418605 C10.73872,24.7674419 10.9119252,24.5930233 10.9119252,24.5930233 L10.9119252,22.8488372 L13.1635923,22.8488372 C13.8564129,22.8488372 14.2028232,23.372093 14.2028232,23.8953488 C14.2028232,24.4186046 13.5100026,24.9418605 12.9903871,24.9418605 L12.9903871,24.9418605 Z M13.1635923,20.0581395 L10.73872,20.0581395 L10.73872,17.9651163 L13.1635923,17.9651163 C13.6832078,17.9651163 14.2028232,18.4883721 14.2028232,19.0116279 C14.2028232,19.5348837 13.6832078,20.0581395 13.1635923,20.0581395 Z M13.1635923,11.6860465 L10.73872,11.6860465 L10.73872,9.59302326 L13.1635923,9.59302326 C13.6832078,9.59302326 14.2028232,10.1162791 14.2028232,10.6395349 C14.2028232,11.1627907 13.6832078,11.6860465 13.1635923,11.6860465 Z M25.8075691,6.80232558 L18.8793626,6.80232558 L18.8793626,2.44186046 L25.8075691,5.05813953 L25.8075691,6.80232558 Z" id="形状"></path>
                </g>
            </g>
        </g>
    </g>
</svg>