<?xml version="1.0" encoding="UTF-8"?>
<svg width="20px" height="20px" viewBox="0 0 20 20" version="1.1" xmlns="http://www.w3.org/2000/svg" xmlns:xlink="http://www.w3.org/1999/xlink">
    <title>实况分析</title>
    <g id="页面-1" stroke="none" stroke-width="1" fill="none" fill-rule="evenodd">
        <g id="切图" transform="translate(-75.000000, -29.000000)">
            <g id="实况分析" transform="translate(75.000000, 29.000000)">
                <rect id="矩形" x="0" y="0" width="20" height="20"></rect>
                <g id="实况分析" transform="translate(1.000000, 2.000000)">
                    <path d="M11.4782571,9.24222857 C13.0836429,9.24222857 14.3850857,7.94078571 14.3850857,6.3354 C14.3850857,4.73001429 13.0836429,3.42857143 11.4782571,3.42857143 C10.0430571,3.42857143 8.85077143,4.46871429 8.61411429,5.83628571" id="路径" stroke="#FFFFFF" stroke-linecap="round" stroke-linejoin="round"></path>
                    <path d="M12.4285714,1.71428571 C12.9019714,1.71428571 13.2857143,1.33053 13.2857143,0.857142857 C13.2857143,0.383755714 12.9019714,0 12.4285714,0 C11.9551714,0 11.5714286,0.383755714 11.5714286,0.857142857 C11.5714286,1.33053 11.9551714,1.71428571 12.4285714,1.71428571 Z" id="路径" fill="#FFFFFF" fill-rule="nonzero"></path>
                    <path d="M16.2857143,3.85714286 C16.7591143,3.85714286 17.1428571,3.4734 17.1428571,3 C17.1428571,2.52661286 16.7591143,2.14285714 16.2857143,2.14285714 C15.8123143,2.14285714 15.4285714,2.52661286 15.4285714,3 C15.4285714,3.4734 15.8123143,3.85714286 16.2857143,3.85714286 Z" id="路径" fill="#FFFFFF" fill-rule="nonzero"></path>
                    <path d="M17.1428571,7.71428571 C17.6162571,7.71428571 18,7.33054286 18,6.85714286 C18,6.38374286 17.6162571,6 17.1428571,6 C16.6694571,6 16.2857143,6.38374286 16.2857143,6.85714286 C16.2857143,7.33054286 16.6694571,7.71428571 17.1428571,7.71428571 Z" id="路径" fill="#FFFFFF" fill-rule="nonzero"></path>
                    <path d="M7.71428571,3 C8.18768571,3 8.57142857,2.61624429 8.57142857,2.14285714 C8.57142857,1.66947 8.18768571,1.28571429 7.71428571,1.28571429 C7.24088571,1.28571429 6.85714286,1.66947 6.85714286,2.14285714 C6.85714286,2.61624429 7.24088571,3 7.71428571,3 Z" id="路径" fill="#FFFFFF" fill-rule="nonzero"></path>
                    <path d="M2.33766429,15.8546571 C0.91818,14.769 0,13.0404857 0,11.0936143 C0,7.80711429 2.61651429,5.14285714 5.84417143,5.14285714 C8.54288571,5.14285714 10.8144,7.00551429 11.4863571,9.53712857 C12.0151286,9.26395714 12.6132857,9.11001429 13.2467571,9.11001429 C15.3985286,9.11001429 17.1428571,10.8861857 17.1428571,13.0772143 C17.1428571,14.7040286 16.1812286,16.1021143 14.8052143,16.7142857" id="路径" stroke="#FFFFFF" stroke-linecap="round" stroke-linejoin="round"></path>
                    <path d="M7.81825714,9.3246 C7.35295714,8.85925714 6.7101,8.57142857 6,8.57142857 C4.57984286,8.57142857 3.42857143,9.7227 3.42857143,11.1428571 C3.42857143,11.8529571 3.7164,12.4958143 4.18174286,12.9611143" id="路径" stroke="#FFFFFF" stroke-linecap="round" stroke-linejoin="round"></path>
                </g>
            </g>
        </g>
    </g>
</svg>