<?xml version="1.0" encoding="UTF-8"?>
<svg width="33px" height="32px" viewBox="0 0 33 32" version="1.1" xmlns="http://www.w3.org/2000/svg" xmlns:xlink="http://www.w3.org/1999/xlink">
    <title>报告生成</title>
    <g id="页面-1" stroke="none" stroke-width="1" fill="none" fill-rule="evenodd">
        <g id="切图" transform="translate(-748.000000, -151.000000)">
            <g id="报告生成" transform="translate(748.850000, 151.000000)">
                <rect id="矩形" x="0" y="0" width="32" height="32"></rect>
                <g transform="translate(3.000000, 1.000000)" fill="#2C2C2C" fill-rule="nonzero">
                    <path d="M18.9057675,15.8702407 C16.2497704,15.8667209 13.853339,17.4639417 12.834489,19.9167518 C11.815639,22.369562 12.375141,25.1946205 14.2519684,27.0739426 C16.1287959,28.9532648 18.9531086,29.5165188 21.40727,28.5009278 C23.8614314,27.4853368 25.4618378,25.0910292 25.4618378,22.4350297 C25.4629923,20.6950964 24.7729149,19.0259671 23.5434135,17.7948314 C22.313912,16.5636956 20.6457008,15.8714017 18.9057675,15.8702407 L18.9057675,15.8702407 Z M22.4641124,20.6776431 L22.4481361,20.6950717 L18.410504,25.1858482 C18.268382,25.3437249 18.0659376,25.4338721 17.8535141,25.4338721 C17.6410906,25.4338721 17.4386462,25.3437249 17.2965242,25.1858482 L15.3459702,23.015984 C15.0700374,22.708367 15.0957224,22.2353063 15.4033395,21.9593735 C15.7109565,21.6834406 16.1840171,21.7091256 16.45995,22.0167426 L17.8542402,23.5678905 L21.3399658,19.6972828 C21.5156092,19.495695 21.7854562,19.4031248 22.047858,19.4544426 C22.3102599,19.5057604 22.5253514,19.6931696 22.6121099,19.9460751 C22.6988683,20.1989807 22.6441129,20.4789601 22.4684695,20.6805478 L22.4641124,20.6776431 Z" id="形状"></path>
                    <path d="M22.8141373,1.40860409e-05 L1.19682911,1.40860409e-05 C0.878446479,-0.00153322775 0.572694374,0.124452538 0.347834198,0.349858485 C0.122974022,0.575264432 -0.00227016725,0.881321054 3.1223752e-05,1.19969897 L3.1223752e-05,27.0521637 C-0.00227417391,27.3707948 0.123168591,27.6770747 0.34834435,27.9025234 C0.57352011,28.1279721 0.879647785,28.2537858 1.19828148,28.2518567 L13.9284418,28.2518567 C12.1986505,26.8982109 11.2066711,24.7893469 11.2066711,22.4074344 C11.2074928,20.0459737 12.2921854,17.8155546 14.1492044,16.3567957 C14.0436336,16.4114801 13.9267752,16.440819 13.8078938,16.4424865 L5.50460499,16.4424865 C5.08789822,16.4424865 4.75009064,16.1046789 4.75009064,15.6879721 C4.75009064,15.2712654 5.08789822,14.9334578 5.50460499,14.9334578 L13.7832032,14.9334578 C14.198427,14.9374081 14.5338404,15.2734678 14.5369914,15.6886983 C14.5340188,15.8796524 14.4605656,16.0627683 14.3307526,16.2028428 C15.5617784,15.2857244 17.0569592,14.7924268 18.5920522,14.7969335 C20.5774634,14.7969335 22.658732,15.4141975 23.999316,16.6850349 L23.999316,1.19969897 C24.0016026,0.883334936 23.8779486,0.579049041 23.655606,0.35398164 C23.4332633,0.128914239 23.1305061,0.00156321392 22.8141373,1.40860409e-05 Z M18.4163135,11.7934 L5.50460499,11.7934 C5.08829928,11.7934 4.75081683,11.4559175 4.75081683,11.0396118 C4.75081683,10.6233061 5.08829928,10.2858237 5.50460499,10.2858237 L18.4163135,10.2858237 C18.8326192,10.2858237 19.1701017,10.6233061 19.1701017,11.0396118 C19.1701017,11.4559175 18.8326192,11.7934 18.4163135,11.7934 L18.4163135,11.7934 Z M18.4163135,7.13124202 L5.50460499,7.13124202 C5.08789821,7.13124202 4.75009063,6.79343444 4.75009063,6.37672766 C4.75009063,5.96002089 5.08789821,5.6222133 5.50460499,5.6222133 L18.4163135,5.6222133 C18.8330203,5.6222133 19.1708279,5.96002089 19.1708279,6.37672766 C19.1708279,6.79343444 18.8330203,7.13124202 18.4163135,7.13124202 L18.4163135,7.13124202 Z" id="形状"></path>
                    <path d="M14.3423717,16.1984857 L14.136133,16.3524386 C14.2178494,16.3212824 14.2892669,16.2679707 14.3423717,16.1984857 L14.3423717,16.1984857 Z" id="路径"></path>
                </g>
            </g>
        </g>
    </g>
</svg>