<?xml version="1.0" encoding="UTF-8"?>
<svg width="33px" height="32px" viewBox="0 0 33 32" version="1.1" xmlns="http://www.w3.org/2000/svg" xmlns:xlink="http://www.w3.org/1999/xlink">
    <title>能见度预报</title>
    <g id="页面-1" stroke="none" stroke-width="1" fill="none" fill-rule="evenodd">
        <g id="切图" transform="translate(-249.000000, -151.000000)">
            <g id="能见度预报" transform="translate(249.800000, 151.000000)">
                <rect id="矩形" x="0" y="0" width="32" height="32"></rect>
                <g id="能见度" transform="translate(2.000000, 3.000000)" fill="#333333" fill-rule="nonzero">
                    <path d="M27.4495703,16.2208044 C27.6049922,15.3959747 27.6898398,14.5462594 27.6898398,13.676357 C27.6898398,6.12310756 21.5606836,0 14,0 C6.43931641,0 0.310160156,6.12310756 0.310160156,13.676357 C0.310160156,14.5462594 0.395007812,15.3959747 0.550429687,16.2208044 L27.4495703,16.2208044 Z M26.8938633,17.6602068 L1.10613672,17.6602068 C0.495167969,17.6602068 0,18.1548861 0,18.7652519 C0,19.3756177 0.495167969,19.870297 1.10613672,19.870297 L26.8938633,19.870297 C27.504832,19.870297 28,19.3756177 28,18.7652519 C28,18.1548861 27.504832,17.6602068 26.8938633,17.6602068 L26.8938633,17.6602068 Z M24.665375,21.2250446 L3.334625,21.2250446 C2.72365625,21.2250446 2.22848828,21.7197239 2.22848828,22.3300897 C2.22848828,22.9404555 2.72365625,23.4351348 3.334625,23.4351348 L24.665375,23.4351348 C25.2763438,23.4351348 25.7715117,22.9404555 25.7715117,22.3300897 C25.7715117,21.7197239 25.2763438,21.2250446 24.665375,21.2250446 Z M18.457168,24.7899098 L9.54283203,24.7899098 C8.93186328,24.7899098 8.43669531,25.2845891 8.43669531,25.8949549 C8.43669531,26.5053207 8.93186328,27 9.54283203,27 L18.4571953,27 C19.0681641,27 19.563332,26.5053207 19.563332,25.8949549 C19.563332,25.2845891 19.0681367,24.7899098 18.457168,24.7899098 L18.457168,24.7899098 Z" id="形状"></path>
                </g>
            </g>
        </g>
    </g>
</svg>