<?xml version="1.0" encoding="UTF-8"?>
<svg width="33px" height="32px" viewBox="0 0 33 32" version="1.1" xmlns="http://www.w3.org/2000/svg" xmlns:xlink="http://www.w3.org/1999/xlink">
    <title>降水预报</title>
    <g id="页面-1" stroke="none" stroke-width="1" fill="none" fill-rule="evenodd">
        <g id="切图" transform="translate(-138.000000, -151.000000)">
            <g id="地面观测" transform="translate(138.900000, 151.000000)">
                <rect id="矩形" x="0" y="0" width="32" height="32"></rect>
                <g id="rain" transform="translate(2.000000, 3.000000)" fill="#1055CD" fill-rule="nonzero">
                    <path d="M23.6167357,8.09937722 C23.6167357,8.09937722 24.1479645,0.873293193 17.5951059,0.0449602427 C11.9678143,-0.537940722 10.2535709,4.7396336 10.2535709,4.7396336 C9.13517255,3.7613284 7.51609651,3.63681536 6.26429949,4.43284362 C5.06217723,5.21276273 4.40330584,6.61629216 4.56561187,8.05139212 C4.56561187,8.05139212 0,8.95681588 0,13.6507026 C0.10655687,18.345376 4.95995007,18.3910011 4.95995007,18.3910011 L22.8280593,18.3910011 C22.8280593,18.3910011 27.3485595,18.3910011 27.9855674,13.9268136 C28.2920156,9.05042616 23.6167357,8.09937722 23.6167357,8.09937722 Z M7.06775384,21.2779735 C6.831212,20.7683896 6.65298112,20.233153 6.53652507,19.6826656 C6.42503298,20.2345182 6.24660735,20.7703397 6.00529629,21.2779735 C5.71740201,21.8260072 5.35040854,22.3276182 4.91639397,22.7662983 C4.43588504,23.2419654 4.1489599,23.8824068 4.11216183,24.561413 C4.11216183,25.9082074 5.19166636,27 6.52330268,27 C7.854939,27 8.93444353,25.9082074 8.93444353,24.561413 C8.89757081,23.8824253 8.61065736,23.24201 8.13021139,22.7662983 C7.70948771,22.3224573 7.35190345,21.8215417 7.06775384,21.2779735 L7.06775384,21.2779735 Z M14.8339607,21.2779735 C14.5974189,20.7683896 14.419188,20.233153 14.302732,19.6826656 C14.1911939,20.2345056 14.0127701,20.7703216 13.7715032,21.2779735 C13.4835991,21.8260009 13.1166067,22.3276106 12.6826009,22.7662983 C12.2021549,23.24201 11.9152415,23.8824253 11.8783687,24.561413 C11.8783687,25.9082074 12.9578733,27 14.2895096,27 C15.6211459,27 16.7006504,25.9082074 16.7006504,24.561413 C16.6638524,23.8824068 16.3769272,23.2419654 15.8964183,22.7662983 C15.4872835,22.3133564 15.1315271,21.8139045 14.8362941,21.2779735 L14.8339607,21.2779735 Z M22.6118345,21.2779735 C22.3752926,20.7683896 22.1970617,20.233153 22.0806057,19.6826656 C21.9690676,20.2345056 21.7906438,20.7703216 21.5493769,21.2779735 C21.2614728,21.8260009 20.8944804,22.3276106 20.4604746,22.7662983 C19.981,23.2421393 19.6949419,23.8822227 19.6585758,24.5606263 C19.6585758,25.9074208 20.7380803,26.9992134 22.0697167,26.9992134 C23.401353,26.9992134 24.4808575,25.9074208 24.4808575,24.5606263 C24.4440594,23.8816202 24.1571343,23.2411788 23.6766254,22.7655116 C23.2667233,22.3129407 22.9101819,21.8137501 22.6141678,21.2779735 L22.6118345,21.2779735 Z" id="形状"></path>
                </g>
            </g>
        </g>
    </g>
</svg>