<?xml version="1.0" encoding="UTF-8"?>
<svg width="33px" height="32px" viewBox="0 0 33 32" version="1.1" xmlns="http://www.w3.org/2000/svg" xmlns:xlink="http://www.w3.org/1999/xlink">
    <title>高空观测</title>
    <g id="页面-1" stroke="none" stroke-width="1" fill="none" fill-rule="evenodd">
        <g id="切图" transform="translate(-83.000000, -151.000000)">
            <g id="高空观测" transform="translate(83.450000, 151.000000)">
                <rect id="矩形" x="0" y="0" width="32" height="32"></rect>
                <g transform="translate(5.000000, 1.000000)" fill="#FFFFFF" fill-rule="nonzero" id="形状">
                    <path d="M14.3544948,10.8587443 C13.9666977,11.8347796 13.4101364,12.7337104 12.7106954,13.5137293 C12.0409309,14.2605406 11.2354007,14.8710898 10.3376715,15.3123555 C9.45489168,15.749251 8.48405103,15.9751002 7.50059558,15.9723766 C6.50484551,15.9723766 5.55238895,15.7637166 4.6459317,15.3450826 C3.73872046,14.9274407 2.92568896,14.3274579 2.25667269,13.5819107 C1.54986697,12.7882459 0.993206989,11.8708529 0.614226258,10.8751078 C0.202938193,9.82920464 0,8.67966568 0,7.4251273 C0,6.43649651 0.198879427,5.49559271 0.597991222,4.60514319 C0.987938936,3.72669618 1.53351808,2.92726606 2.20796753,2.24606559 C2.88285131,1.56318945 3.67493283,1.00924154 4.54581551,0.611074788 C5.43149529,0.203671279 6.39446635,-0.00477806694 7.3680093,8.31079457e-05 C8.36375937,8.31079457e-05 9.31486302,0.214258848 10.2226732,0.643801895 C11.1291305,1.07334494 11.9368245,1.63925084 12.6444023,2.34288323 C13.3533331,3.04787924 13.9161483,3.85651105 14.3369068,4.77014226 C14.7576653,5.68240984 14.9673681,6.63422266 14.9673681,7.62421709 C14.9673681,8.76830154 14.7644299,9.84693184 14.3544948,10.8587443 Z M6.13955678,30 L7.33418626,28.4481906 L8.59646181,30 L8.59646181,18.2837024 L6.17337982,18.2837024 L6.13955678,30 Z M14.0717343,14.5228145 C14.7130189,14.4546331 15.3556566,14.3564519 15.9969412,14.2241799 C16.550286,14.1150896 17.1469243,13.9719086 17.7895619,13.7960004 C18.4228878,13.6230092 19.0350502,13.3792251 19.6146527,13.0691864 C20.141544,12.7923397 20.6274379,12.4425915 21.0582197,12.0301013 C21.5114484,11.6005583 21.8983838,11.0891976 22.2203791,10.4946554 C22.5410215,9.90147698 22.7669593,9.23602618 22.8995456,8.49830306 C23.0334848,7.76194359 23.0334848,6.94240273 22.8995456,6.03968054 C22.767214,5.11614421 22.362821,4.25392727 21.7387391,3.5646945 C21.0974207,2.83929195 20.3186526,2.25047749 19.4482434,1.83288609 C18.5795784,1.40815736 17.6398959,1.15056678 16.6774606,1.07334491 C15.7141807,0.995618091 14.8469581,1.16607167 14.0717343,1.58470567 C19.4482434,7.50012685 14.5141395,14.1478166 14.0717343,14.5214509 L14.0717343,14.5228145 Z M14.0717343,27.557741 L15.2338936,26.0400223 L16.4948163,27.557741 L16.4948163,16.3691678 L14.1055573,16.3691678 L14.0703813,27.5591047 L14.0717343,27.557741 Z"></path>
                </g>
            </g>
        </g>
    </g>
</svg>